# xmcd
#
# Track frame offsets: 
#        150
#        15350
#        29059
#        37580
#        48166
#        62204
#        72573
#        89142
#        98500
#        109846
#        121384
#        130685
#        138679
#        152686
#        164418
#
# Disc length: 2338 seconds
#
# Revision: 0
# Processed by: cddbd v1.5.1PL0 Copyright (c) Steve Scherf et al.
# Submitted via: ExactAudioCopy v0.95a5
#
DISCID=ca09200f
DTITLE=Hoyt Axton - Joy To The World
DYEAR=1900
DGENRE=Country
TTITLE0=Della And The Dealer
TTITLE1=Joy To The World
TTITLE2=Big Red
TTITLE3=Heartbreak Hotel
TTITLE4=Lonesome Road
TTITLE5=Young Man
TTITLE6=Nashville
TTITLE7=I'll Be There
TTITLE8=Double, Double Dare
TTITLE9=South Baound
TTITLE10=Never Gonna Work
TTITLE11=I Love To Sing
TTITLE12=Lion In The Winter
TTITLE13=No, No Song
TTITLE14=Red, White And Blue
EXTD=
EXTT0=
EXTT1=
EXTT2=
EXTT3=
EXTT4=
EXTT5=
EXTT6=
EXTT7=
EXTT8=
EXTT9=
EXTT10=
EXTT11=
EXTT12=
EXTT13=
EXTT14=
PLAYORDER=
